<?xml version="1.0" standalone="no"?>
<!DOCTYPE svg PUBLIC "-//W3C//DTD SVG 20010904//EN"
 "http://www.w3.org/TR/2001/REC-SVG-20010904/DTD/svg10.dtd">
<svg version="1.0" xmlns="http://www.w3.org/2000/svg"
 width="16.000000pt" height="16.000000pt" viewBox="0 0 16.000000 16.000000"
 preserveAspectRatio="xMidYMid meet">
<metadata>
Created by potrace 1.11, written by Peter Selinger 2001-2013
</metadata>
<g transform="translate(0.000000,16.000000) scale(0.003025,-0.003025)"
fill="#000000" stroke="none">
<path d="M2917 4773 c-1 0 -58 -4 -127 -8 -143 -8 -157 -12 -174 -45 -11 -23
-42 -29 -56 -12 -12 16 -67 39 -85 36 -11 -2 -63 -8 -115 -14 -192 -21 -240
-31 -258 -53 -6 -7 -13 -46 -16 -87 -2 -41 -5 -80 -5 -87 -1 -11 -26 -19 -86
-28 -16 -2 -47 -6 -67 -10 -32 -5 -38 -3 -39 12 -3 87 -8 108 -29 122 -34 23
-102 29 -170 16 -19 -3 -55 -8 -79 -10 -69 -6 -74 -15 -80 -157 -1 -23 -7 -29
-40 -38 -22 -6 -61 -12 -88 -15 -76 -7 -135 -15 -168 -24 -17 -5 -60 -7 -96
-5 -36 2 -119 -6 -185 -16 -65 -11 -132 -22 -149 -25 -35 -5 -137 -23 -180
-30 -16 -4 -41 -7 -55 -9 -114 -15 -174 -38 -217 -84 -35 -37 -45 -64 -59
-157 -3 -22 -7 -44 -8 -50 -12 -54 -25 -123 -25 -135 -1 -179 6 -261 25 -292
3 -5 5 -75 4 -156 0 -81 -3 -397 -6 -702 -9 -1011 -13 -1324 -21 -1410 -4 -47
-5 -107 0 -135 4 -27 9 -69 11 -91 7 -68 81 -205 101 -186 5 4 5 1 1 -6 -6 -9
20 -42 80 -102 49 -49 102 -103 118 -119 16 -17 38 -34 50 -37 12 -4 46 -26
76 -49 49 -38 153 -94 156 -84 0 2 7 -1 15 -7 26 -20 190 -4 432 41 44 8 83
13 87 10 5 -3 11 -1 14 4 3 5 34 12 68 16 35 4 72 9 83 11 11 1 40 6 65 9 54
7 138 21 240 40 41 8 93 16 115 19 22 3 102 14 177 25 186 28 209 31 238 37
14 2 39 7 55 9 44 7 76 13 110 19 17 3 77 12 135 20 58 9 116 18 130 20 14 3
61 10 106 16 44 6 89 12 100 14 10 2 44 7 74 11 30 4 63 9 74 11 10 2 44 6 75
10 31 3 58 8 61 9 3 2 30 6 60 10 60 7 62 7 201 29 53 9 118 18 145 21 26 4
51 8 55 11 4 2 41 9 81 14 105 14 130 18 488 75 231 38 291 47 321 50 64 5
195 33 226 48 17 8 20 14 13 32 -7 18 -3 25 20 38 41 25 90 70 90 83 0 7 4 14
9 16 13 5 22 73 21 153 -8 390 6 1922 18 1955 8 23 8 314 0 685 -4 175 -12
199 -89 267 -57 50 -127 92 -239 141 -14 6 -33 17 -42 25 -9 8 -22 11 -27 7
-6 -3 -11 -2 -11 2 0 7 -41 29 -70 37 -3 1 -14 7 -25 13 -24 13 -98 34 -140
38 -27 3 -66 9 -130 20 -11 1 -31 7 -45 13 -40 16 -128 34 -164 34 -24 0 -36
5 -39 18 -5 21 -52 46 -87 45 -17 0 -29 -9 -40 -30 -8 -16 -16 -32 -17 -34 -1
-2 -71 -5 -155 -7 -192 -4 -283 -11 -306 -23 -14 -7 -79 -21 -112 -23 -23 -2
-27 6 -24 42 4 44 -22 79 -60 81 -12 0 -30 3 -41 5 -11 3 -36 7 -55 10 -19 4
-39 10 -45 14 -18 14 -167 34 -178 23z"/>
</g>
</svg>
